<?xml version="1.0" encoding="UTF-8" standalone="no"?>
<!DOCTYPE svg PUBLIC "-//W3C//DTD SVG 1.1//EN"
 "http://www.w3.org/Graphics/SVG/1.1/DTD/svg11.dtd">
<!-- Generated by graphviz version 2.43.0 (0)
 -->
<!-- Title: %3 Pages: 1 -->
<svg width="2150pt" height="238pt"
 viewBox="0.00 0.00 2150.00 237.74" xmlns="http://www.w3.org/2000/svg" xmlns:xlink="http://www.w3.org/1999/xlink">
<g id="graph0" class="graph" transform="scale(1 1) rotate(0) translate(36 201.74)">
<title>%3</title>
<polygon fill="dimgray" stroke="transparent" points="-36,36 -36,-201.74 2114,-201.74 2114,36 -36,36"/>
<text text-anchor="middle" x="1039" y="-150.54" font-family="Helvetica,sans-Serif" font-size="14.00">Sweep&#39;s Plan &amp; Progress</text>
<!-- start -->
<g id="node1" class="node">
<title>start</title>
</g>
<!-- 0e201f6e&#45;a638&#45;43a2&#45;9ee1&#45;c42d1d173a67 -->
<g id="node3" class="node">
<title>0e201f6e&#45;a638&#45;43a2&#45;9ee1&#45;c42d1d173a67</title>
<ellipse fill="#0ee832" stroke="black" cx="536.5" cy="-99.87" rx="483.82" ry="26.74"/>
<text text-anchor="middle" x="536.5" y="-103.67" font-family="Helvetica,sans-Serif" font-size="14.00">✓ Modify</text>
<text text-anchor="middle" x="536.5" y="-88.67" font-family="Helvetica,sans-Serif" font-size="14.00">runelite&#45;client/src/main/java/net/runelite/client/plugins/groundmarkers/GroundMarkerConfig.java</text>
</g>
<!-- start&#45;&gt;0e201f6e&#45;a638&#45;43a2&#45;9ee1&#45;c42d1d173a67 -->
<g id="edge4" class="edge">
<title>start&#45;&gt;0e201f6e&#45;a638&#45;43a2&#45;9ee1&#45;c42d1d173a67</title>
<path fill="none" stroke="black" d="M1.37,-99.87C5.01,-99.87 19.93,-99.87 42.6,-99.87"/>
<polygon fill="black" stroke="black" points="42.79,-103.37 52.79,-99.87 42.79,-96.37 42.79,-103.37"/>
<text text-anchor="middle" x="26.92" y="-106.67" font-family="Helvetica,sans-Serif" font-size="14.00">Start</text>
</g>
<!-- end -->
<g id="node2" class="node">
<title>end</title>
</g>
<!-- 6e25c3cd&#45;36f1&#45;4eeb&#45;878d&#45;189450e93f51 -->
<g id="node4" class="node">
<title>6e25c3cd&#45;36f1&#45;4eeb&#45;878d&#45;189450e93f51</title>
<ellipse fill="#0ee832" stroke="black" cx="1537.5" cy="-99.87" rx="482.49" ry="26.74"/>
<text text-anchor="middle" x="1537.5" y="-103.67" font-family="Helvetica,sans-Serif" font-size="14.00">✓ Modify</text>
<text text-anchor="middle" x="1537.5" y="-88.67" font-family="Helvetica,sans-Serif" font-size="14.00">runelite&#45;client/src/main/java/net/runelite/client/plugins/groundmarkers/GroundMarkerPlugin.java</text>
</g>
<!-- 0e201f6e&#45;a638&#45;43a2&#45;9ee1&#45;c42d1d173a67&#45;&gt;6e25c3cd&#45;36f1&#45;4eeb&#45;878d&#45;189450e93f51 -->
<g id="edge2" class="edge">
<title>0e201f6e&#45;a638&#45;43a2&#45;9ee1&#45;c42d1d173a67&#45;&gt;6e25c3cd&#45;36f1&#45;4eeb&#45;878d&#45;189450e93f51</title>
<path fill="none" stroke="black" d="M1020.38,-99.87C1028.64,-99.87 1036.9,-99.87 1045.15,-99.87"/>
<polygon fill="black" stroke="black" points="1045.23,-103.37 1055.23,-99.87 1045.23,-96.37 1045.23,-103.37"/>
</g>
<!-- 4ae5610f&#45;85a4&#45;4e96&#45;b9ef&#45;49c4584d94d1 -->
<g id="node5" class="node">
<title>4ae5610f&#45;85a4&#45;4e96&#45;b9ef&#45;49c4584d94d1</title>
<polygon fill="#ee0000" stroke="black" points="975,-36 98,-36 98,0 975,0 975,-36"/>
<text text-anchor="middle" x="536.5" y="-14.3" font-family="Helvetica,sans-Serif" font-size="14.00">✗ Run GitHub Actions for `runelite&#45;client/src/main/java/net/runelite/client/plugins/groundmarkers/GroundMarkerConfig.java`</text>
</g>
<!-- 0e201f6e&#45;a638&#45;43a2&#45;9ee1&#45;c42d1d173a67&#45;&gt;4ae5610f&#45;85a4&#45;4e96&#45;b9ef&#45;49c4584d94d1 -->
<g id="edge1" class="edge">
<title>0e201f6e&#45;a638&#45;43a2&#45;9ee1&#45;c42d1d173a67&#45;&gt;4ae5610f&#45;85a4&#45;4e96&#45;b9ef&#45;49c4584d94d1</title>
<path fill="none" stroke="black" stroke-dasharray="5,2" d="M536.5,-72.72C536.5,-64.27 536.5,-54.89 536.5,-46.36"/>
<polygon fill="black" stroke="black" points="540,-46.15 536.5,-36.15 533,-46.15 540,-46.15"/>
</g>
<!-- 6e25c3cd&#45;36f1&#45;4eeb&#45;878d&#45;189450e93f51&#45;&gt;end -->
<g id="edge5" class="edge">
<title>6e25c3cd&#45;36f1&#45;4eeb&#45;878d&#45;189450e93f51&#45;&gt;end</title>
<path fill="none" stroke="black" d="M2019.97,-99.87C2040.75,-99.87 2056.97,-99.87 2066.82,-99.87"/>
<polygon fill="black" stroke="black" points="2066.92,-103.37 2076.92,-99.87 2066.92,-96.37 2066.92,-103.37"/>
<text text-anchor="middle" x="2048.37" y="-106.67" font-family="Helvetica,sans-Serif" font-size="14.00">Finish</text>
</g>
<!-- 2ad0694b&#45;304b&#45;47b8&#45;b418&#45;05d4d72dfd96 -->
<g id="node6" class="node">
<title>2ad0694b&#45;304b&#45;47b8&#45;b418&#45;05d4d72dfd96</title>
<polygon fill="yellow" stroke="black" points="1976,-36 1099,-36 1099,0 1976,0 1976,-36"/>
<text text-anchor="middle" x="1537.5" y="-14.3" font-family="Helvetica,sans-Serif" font-size="14.00">⋯ Run GitHub Actions for `runelite&#45;client/src/main/java/net/runelite/client/plugins/groundmarkers/GroundMarkerPlugin.java`</text>
</g>
<!-- 6e25c3cd&#45;36f1&#45;4eeb&#45;878d&#45;189450e93f51&#45;&gt;2ad0694b&#45;304b&#45;47b8&#45;b418&#45;05d4d72dfd96 -->
<g id="edge3" class="edge">
<title>6e25c3cd&#45;36f1&#45;4eeb&#45;878d&#45;189450e93f51&#45;&gt;2ad0694b&#45;304b&#45;47b8&#45;b418&#45;05d4d72dfd96</title>
<path fill="none" stroke="black" stroke-dasharray="5,2" d="M1537.5,-72.72C1537.5,-64.27 1537.5,-54.89 1537.5,-46.36"/>
<polygon fill="black" stroke="black" points="1541,-46.15 1537.5,-36.15 1534,-46.15 1541,-46.15"/>
</g>
</g>
</svg>
